<svg id="visual" viewBox="0 0 960 540" width="960" height="540" preserveAspectRatio="none" xmlns="http://www.w3.org/2000/svg"><rect x="0" y="0" width="960" height="540" fill="#54BBC4"></rect><defs><linearGradient id="grad1_0" x1="43.8%" y1="100%" x2="100%" y2="0%"><stop offset="14.444444444444446%" stop-color="#54bbc4" stop-opacity="1"></stop><stop offset="85.55555555555554%" stop-color="#54bbc4" stop-opacity="1"></stop></linearGradient></defs><defs><linearGradient id="grad2_0" x1="0%" y1="100%" x2="56.3%" y2="0%"><stop offset="14.444444444444446%" stop-color="#54bbc4" stop-opacity="1"></stop><stop offset="85.55555555555554%" stop-color="#54bbc4" stop-opacity="1"></stop></linearGradient></defs><g transform="translate(960, 540)"><path d="M-351 0C-318.4 -47.5 -285.9 -95.1 -260.7 -150.5C-235.5 -205.9 -217.7 -269.2 -175.5 -304C-133.3 -338.7 -66.6 -344.9 0 -351L0 0Z" fill="#CBB6B1"></path></g><g transform="translate(0, 0)"><path d="M351 0C327.7 52.9 304.3 105.7 278 160.5C251.7 215.3 222.3 271.9 175.5 304C128.7 336 64.3 343.5 0 351L0 0Z" fill="#CBB6B1"></path></g></svg>
